<svg version="1.1" xmlns="http://www.w3.org/2000/svg" style="display: block;" viewBox="0 0 2048 1117" width="1408" height="768" preserveAspectRatio="none">
<defs>
	<linearGradient id="Gradient1" gradientUnits="userSpaceOnUse" x1="1131.22" y1="701.198" x2="943.157" y2="379.292">
		<stop class="stop0" offset="0" stop-opacity="1" stop-color="rgb(60,50,151)"/>
		<stop class="stop1" offset="1" stop-opacity="1" stop-color="rgb(94,128,213)"/>
	</linearGradient>
	<linearGradient id="Gradient2" gradientUnits="userSpaceOnUse" x1="620.205" y1="170.829" x2="1427.19" y2="944.757">
		<stop class="stop0" offset="0" stop-opacity="1" stop-color="rgb(235,234,249)"/>
		<stop class="stop1" offset="1" stop-opacity="1" stop-color="rgb(255,255,255)"/>
	</linearGradient>
</defs>
<path transform="translate(0,0)" fill="rgb(248,250,251)" d="M 0 0 L 2048 0 L 2048 1117 L 0 1117 L 0 0 z"/>
<path transform="translate(0,0)" fill="rgb(183,182,201)" d="M 698.823 126.417 C 700.628 126.17 705.12 126.038 707.102 126.03 C 756.213 125.835 805.464 125.949 854.569 125.942 L 1143.79 125.926 L 1282.08 125.992 C 1306.52 125.929 1336.56 124.86 1360.35 127.207 C 1379.11 129.057 1407.23 143.297 1420.58 156.263 C 1446.31 181.253 1456.74 210.764 1456.91 246.218 C 1457.14 297.333 1457.12 348.548 1457.12 399.653 L 1457.16 681.387 L 1457.14 820.477 C 1457.17 859.342 1461.97 899.656 1441.71 934.334 C 1420.49 970.653 1386.08 990.488 1344.38 991.487 C 1322.23 993.119 1280.53 991.432 1256.53 991.618 L 1009.71 991.58 L 794.365 992.203 L 730.604 992.087 C 718.154 992.002 700.404 992.15 688.382 990.522 C 667.553 987.512 647.985 978.724 631.897 965.156 C 608.68 945.471 594.215 917.384 591.672 887.051 C 590.598 873.69 591.654 851.463 591.652 837.42 L 590.965 755.963 L 591.159 481.259 C 591.272 437.898 592.24 390.815 591.591 347.815 C 591.069 321.131 590.89 294.442 591.052 267.753 C 591.104 258.377 591.419 248.837 591.574 239.528 C 592.624 176.759 637.615 131.111 698.823 126.417 z"/>
<path transform="translate(0,0)" fill="url(#Gradient2)" d="M 698.39 129.41 C 739.555 127.647 791.552 129.18 833.683 129.159 L 1116.35 129.349 L 1274.37 129.172 C 1299.38 129.115 1324.59 128.681 1349.59 129.405 C 1373.21 130.089 1397.83 141.138 1415.49 156.489 C 1456.05 191.743 1453.26 234.6 1453.18 283.129 L 1453.12 363.801 L 1453.1 619.537 L 1453.12 801.169 L 1453.14 855.626 C 1453.14 866.037 1453.5 881.584 1452.22 891.475 C 1449.43 912.979 1440.36 933.184 1426.16 949.57 C 1404.39 974.709 1378.68 985.528 1346.21 987.895 L 894.211 987.915 L 761.876 987.898 C 716.156 987.934 673.99 994.245 636.1 963.397 C 612.883 944.711 598.237 917.408 595.512 887.729 C 593.955 872.322 594.451 852.011 594.549 836.399 L 594.749 770.202 L 594.689 543.632 L 594.404 325.213 C 594.491 294.702 592.511 258.014 595.627 228.041 C 601.326 173.221 643.795 134.636 698.39 129.41 z"/>
<path transform="translate(0,0)" fill="url(#Gradient1)" d="M 949.131 367.318 C 970.603 368.429 979.656 376.903 1001.94 368.63 C 1015.97 363.422 1041.02 364.517 1054.76 370.541 C 1070.44 374.985 1078.16 368.867 1094.03 367.5 C 1103.34 366.698 1107.88 367.208 1116.74 368.818 C 1126.73 372.061 1135.75 374.715 1144.8 380.18 L 1146.44 381.283 C 1156.66 386.407 1170.75 398.643 1177.83 407.638 L 1178.71 408.666 C 1188.6 420.25 1194.57 429.519 1201.92 443.004 L 1203.13 445.979 C 1206.92 452.713 1210.93 462.391 1213.16 469.802 C 1215.13 475.146 1218.43 487.011 1219.21 492.664 C 1229.54 520.9 1222.9 566.213 1215.3 594.691 L 1212.64 602.011 C 1210.95 606.867 1204.17 622.4 1203.69 624.724 L 1201.86 626.572 C 1198.63 634.058 1194.4 639.033 1191.7 644.729 L 1189.05 647.74 C 1174.45 671.794 1141.5 699.914 1116.31 712.523 C 1112.66 714.278 1107.02 717.21 1103.39 718.567 C 1098.57 721.393 1094.24 722.72 1089.02 724.548 L 1084.12 726.312 C 1076.22 728.459 1066.77 731.326 1058.79 732.198 C 1056.99 732.959 1050.27 733.837 1048.09 734.134 C 1022.12 737.661 992.539 734.64 967.615 726.994 C 962.796 726.509 954.165 722.701 949.746 720.543 C 949.525 720.488 949.304 720.434 949.084 720.379 C 871.155 688.794 817.542 607.574 824.182 522.978 C 825.559 505.439 828.276 493.325 832.109 478.104 L 835.38 469.118 C 842.356 440.916 871.944 399.408 897.004 384.362 C 902.495 380.477 905.252 379.381 911.288 376.79 C 916.077 373.779 926.133 370.793 931.64 369.092 C 936.895 367.491 943.636 367.363 949.131 367.318 z"/>
<path transform="translate(0,0)" fill="rgb(39,50,139)" d="M 949.131 367.318 C 970.603 368.429 979.656 376.903 1001.94 368.63 C 1015.97 363.422 1041.02 364.517 1054.76 370.541 C 1070.44 374.985 1078.16 368.867 1094.03 367.5 C 1103.34 366.698 1107.88 367.208 1116.74 368.818 C 1126.73 372.061 1135.75 374.715 1144.8 380.18 L 1146.44 381.283 C 1156.66 386.407 1170.75 398.643 1177.83 407.638 L 1178.71 408.666 C 1188.6 420.25 1194.57 429.519 1201.92 443.004 L 1203.13 445.979 C 1206.92 452.713 1210.93 462.391 1213.16 469.802 L 1211.17 468.904 C 1209.78 465.601 1205.31 455.224 1204.71 452.519 L 1202.71 451.443 C 1202.44 455.341 1202.9 461.467 1201.41 464.356 L 1199.93 464.558 C 1198.13 461.879 1197.82 459.319 1197.17 456.19 C 1191.56 458.219 1180.27 482.94 1174.95 489.812 C 1173.67 502.551 1174.21 526.281 1170.84 537.047 C 1170.57 536.576 1172.88 506.083 1172.43 500.666 C 1169.46 465.442 1157.28 402.018 1118.09 390.035 C 1103.06 385.441 1085.74 388.145 1070.68 390.623 C 1055.62 393.099 1046.12 385.659 1031.91 383.851 C 1016.23 381.856 1001.79 387.878 986.647 390.21 C 980.659 391.057 970.931 389.413 966.298 388.288 C 906.522 373.773 862.778 435.359 849.24 487.016 C 837.201 532.665 843.639 581.22 867.158 622.154 C 893.807 667.545 959.136 686.743 1008.49 682.39 C 1012.41 682.044 1023.23 680.536 1026.1 681.197 L 1026.06 681.939 L 997.585 685.45 L 996.856 686.693 C 997.677 688.776 998.473 690.869 999.241 692.972 C 1001.01 697.843 994.157 710.586 1001.31 713.98 C 1009.84 718.027 1045.16 712.52 1051.26 715.835 C 1045.98 716.666 1041.78 715.829 1037.15 718.113 C 1034.97 722.885 1043.63 728.884 1047.36 731.31 C 1050.26 733.195 1056.06 728.772 1058.79 732.198 C 1056.99 732.959 1050.27 733.837 1048.09 734.134 C 1022.12 737.661 992.539 734.64 967.615 726.994 C 962.796 726.509 954.165 722.701 949.746 720.543 C 949.525 720.488 949.304 720.434 949.084 720.379 C 871.155 688.794 817.542 607.574 824.182 522.978 C 825.559 505.439 828.276 493.325 832.109 478.104 L 835.38 469.118 C 842.356 440.916 871.944 399.408 897.004 384.362 C 902.495 380.477 905.252 379.381 911.288 376.79 C 916.077 373.779 926.133 370.793 931.64 369.092 C 936.895 367.491 943.636 367.363 949.131 367.318 z"/>
<path transform="translate(0,0)" fill="rgb(29,31,119)" d="M 949.746 720.543 C 950.044 720.491 986.983 722.551 986.915 722.509 C 981.083 723.329 972.508 724.013 967.615 726.994 C 962.796 726.509 954.165 722.701 949.746 720.543 z"/>
<path transform="translate(0,0)" fill="rgb(29,31,119)" d="M 835.38 469.118 C 837.042 472.098 838.158 500.341 837.267 503.252 C 834.326 500.348 836.978 485.113 832.109 478.104 L 835.38 469.118 z"/>
<path transform="translate(0,0)" fill="rgb(29,31,119)" d="M 1144.8 380.18 L 1146.44 381.283 C 1143.2 384.593 1131.9 385.518 1128.29 382.876 L 1128.55 381.454 C 1133.36 379.742 1138.95 381.85 1144.8 380.18 z"/>
<path transform="translate(0,0)" fill="rgb(29,31,119)" d="M 1200.36 466.964 C 1198.89 458.214 1195.79 450.044 1201.92 443.004 L 1203.13 445.979 C 1200.34 449.561 1200.57 461.705 1200.36 466.964 z"/>
<path transform="translate(0,0)" fill="rgb(29,31,119)" d="M 1177.83 407.638 L 1178.71 408.666 C 1178.51 411.922 1178.53 413.559 1177.48 416.731 L 1176.66 417.073 C 1175.34 413.782 1175.46 410.404 1177.83 407.638 z"/>
<path transform="translate(0,0)" fill="rgb(29,31,119)" d="M 834.756 570.143 C 835.546 570.552 836.649 571.437 837.404 571.994 C 839.467 577.675 838.636 588.965 838.497 595.505 C 835.827 592.246 834.622 574.953 834.756 570.143 z"/>
<path transform="translate(0,0)" fill="rgb(29,31,119)" d="M 937.53 710.521 C 940.95 709.18 951.255 711.028 955.484 711.557 C 951.123 712.373 942.585 712.724 938.24 712.172 L 937.53 710.521 z"/>
<path transform="translate(0,0)" fill="rgb(29,31,119)" d="M 869.604 651.533 C 872.584 653.918 871.945 654.089 871.674 657.619 C 870.582 657.892 871.175 657.874 869.843 657.086 L 869.604 651.533 z"/>
<path transform="translate(0,0)" fill="rgb(29,31,119)" d="M 1219.21 492.664 C 1216.15 489.573 1216.23 486.865 1215.01 482.238 L 1214.49 482.089 C 1214.5 487.313 1215.19 500.462 1212.44 504.288 L 1210.76 503.89 C 1208.63 498.508 1208.45 474.133 1211.17 468.904 L 1213.16 469.802 C 1215.13 475.146 1218.43 487.011 1219.21 492.664 z"/>
<path transform="translate(0,0)" fill="rgb(29,31,119)" d="M 1103.39 718.567 C 1103.5 716.059 1105.41 715.712 1105.1 713.108 C 1102.63 712.144 1100.83 711.484 1098.29 710.754 L 1099.09 709.715 C 1106.51 709.489 1111 708.147 1116.31 712.523 C 1112.66 714.278 1107.02 717.21 1103.39 718.567 z"/>
<path transform="translate(0,0)" fill="rgb(39,50,139)" d="M 1212.64 602.011 C 1209.52 597.876 1209.38 578.006 1211.32 573.288 C 1212.83 574.793 1211 587.797 1215.3 594.691 L 1212.64 602.011 z"/>
<path transform="translate(0,0)" fill="rgb(29,31,119)" d="M 1084.12 726.312 C 1077.83 721.782 1063.7 724.695 1058.79 722.597 C 1062.49 720.307 1084.65 721.406 1089.02 724.548 L 1084.12 726.312 z"/>
<path transform="translate(0,0)" fill="rgb(39,50,139)" d="M 1201.86 626.572 C 1197.23 620.452 1199 615.235 1199.56 607.155 C 1199.52 607.073 1202.69 621.849 1203.69 624.724 L 1201.86 626.572 z"/>
<path transform="translate(0,0)" fill="rgb(39,50,139)" d="M 1189.05 647.74 C 1187.67 645.465 1186.88 640.554 1187.71 637.956 C 1190.25 639.36 1190.34 641.435 1191.7 644.729 L 1189.05 647.74 z"/>
<path transform="translate(0,0)" fill="rgb(146,164,236)" d="M 930.264 408.155 C 948.951 406.5 948.436 422.117 941.317 434.502 C 932.466 449.9 919.329 461.517 902.342 466.797 C 882.799 468.554 883.758 451.589 891.005 438.96 C 900.388 422.608 912.606 413.518 930.264 408.155 z"/>
<path transform="translate(0,0)" fill="rgb(49,110,63)" d="M 863.977 251.697 C 875.457 255.791 882.076 257.546 893.957 259.815 C 910.098 262.897 939.793 264.471 953.888 272.495 C 984.762 282.892 1001.24 310.983 1010.53 340.169 C 1013.81 313.135 1013.92 298.16 1022.13 271.356 C 1027.21 283.149 1022.09 298.803 1025.82 304.02 C 1028.5 293.622 1030.57 286.855 1034.63 276.96 C 1041.45 281.746 1039.32 289.943 1041.48 298.163 C 1037.58 314.764 1035.87 324.977 1036.05 342.184 C 1036.95 340.916 1040.99 330.028 1041.98 327.552 C 1049.41 308.889 1061.56 290.384 1079.75 280.561 C 1100.59 262.532 1147.5 264.451 1176.99 254.124 C 1180.87 253.302 1181.07 252.517 1183.88 254.055 C 1186.35 263.245 1181.34 290.925 1178.09 300.557 C 1175.47 307.755 1172.12 316.906 1167.99 323.427 C 1153.56 348.626 1141.01 355.142 1116.74 368.818 C 1107.88 367.208 1103.34 366.698 1094.03 367.5 C 1078.16 368.867 1070.44 374.985 1054.76 370.541 C 1041.02 364.517 1015.97 363.422 1001.94 368.63 C 979.656 376.903 970.603 368.429 949.131 367.318 C 943.636 367.363 936.895 367.491 931.64 369.092 C 907.857 356.672 887.204 341.41 876.414 315.859 C 865.332 297.88 863.703 272.149 863.977 251.697 z"/>
<path transform="translate(0,0)" fill="rgb(102,158,79)" d="M 863.977 251.697 C 875.457 255.791 882.076 257.546 893.957 259.815 C 910.098 262.897 939.793 264.471 953.888 272.495 C 984.762 282.892 1001.24 310.983 1010.53 340.169 C 1013.81 313.135 1013.92 298.16 1022.13 271.356 C 1027.21 283.149 1022.09 298.803 1025.82 304.02 C 1022.95 322.652 1016.92 341.217 1018.51 360.038 C 1018.67 361.963 1016.27 363.69 1015.03 364.76 C 1013.03 364.806 1011.58 364.984 1010.08 363.076 C 989.094 336.199 959.472 314.57 929.092 299.407 C 924.039 296.885 909.433 289.497 904.119 290.384 L 903.213 292.035 C 905.735 297.53 925.992 308.364 932.485 312.836 C 952.274 326.468 969.262 339.088 983.607 358.687 C 985.77 361.642 990.846 366.711 990.913 369.724 C 980.53 374.808 964.406 362.798 949.131 367.318 C 943.636 367.363 936.895 367.491 931.64 369.092 C 907.857 356.672 887.204 341.41 876.414 315.859 C 865.332 297.88 863.703 272.149 863.977 251.697 z"/>
<path transform="translate(0,0)" fill="rgb(139,184,84)" d="M 863.977 251.697 C 875.457 255.791 882.076 257.546 893.957 259.815 C 910.098 262.897 939.793 264.471 953.888 272.495 L 952.421 273.388 C 942.304 270.325 935.831 267.992 925.159 266.787 C 916.414 276.94 883.298 287.667 869.923 294.122 C 871.535 300.278 876.651 311.656 876.414 315.859 C 865.332 297.88 863.703 272.149 863.977 251.697 z"/>
<path transform="translate(0,0)" fill="rgb(102,158,79)" d="M 1118.74 311.281 L 1120.16 312.084 C 1123.33 310.156 1142.35 297.81 1143.86 297.612 C 1148.87 300.105 1155.11 303.29 1160.25 305.396 C 1162.94 306.497 1168.85 305.741 1172.01 308.059 C 1172.39 311.608 1170.91 315.657 1168.31 318.095 C 1165.18 314.365 1168.79 311.455 1165.41 310.495 C 1161.86 313.451 1162.8 316.145 1163.27 320.526 C 1164.23 318.804 1164.59 315.487 1164.94 313.414 C 1166.14 314.681 1167.47 321.288 1167.99 323.427 C 1153.56 348.626 1141.01 355.142 1116.74 368.818 C 1107.88 367.208 1103.34 366.698 1094.03 367.5 C 1078.16 368.867 1070.44 374.985 1054.76 370.541 C 1063.6 352.731 1100.86 320.518 1118.74 311.281 z"/>
<path transform="translate(0,0)" fill="rgb(139,184,84)" d="M 1176.99 254.124 C 1180.87 253.302 1181.07 252.517 1183.88 254.055 C 1186.35 263.245 1181.34 290.925 1178.09 300.557 C 1175.47 307.755 1172.12 316.906 1167.99 323.427 C 1167.47 321.288 1166.14 314.681 1164.94 313.414 C 1164.59 315.487 1164.23 318.804 1163.27 320.526 C 1162.8 316.145 1161.86 313.451 1165.41 310.495 C 1168.79 311.455 1165.18 314.365 1168.31 318.095 C 1170.91 315.657 1172.39 311.608 1172.01 308.059 C 1168.85 305.741 1162.94 306.497 1160.25 305.396 C 1155.11 303.29 1148.87 300.105 1143.86 297.612 C 1142.35 297.81 1123.33 310.156 1120.16 312.084 L 1118.74 311.281 C 1123.59 308.189 1142.71 297.033 1143.65 291.829 L 1142.15 291.012 C 1131.71 292.234 1121.43 297.96 1111.88 302.563 L 1110.09 302.104 L 1112.52 300.622 L 1112.26 299.155 C 1099.9 292.839 1100.34 282.825 1093.72 275.956 C 1088.69 275.9 1085.16 281.024 1079.75 280.561 C 1100.59 262.532 1147.5 264.451 1176.99 254.124 z"/>
<path transform="translate(0,0)" fill="rgb(162,198,107)" d="M 1176.99 254.124 C 1180.87 253.302 1181.07 252.517 1183.88 254.055 C 1186.35 263.245 1181.34 290.925 1178.09 300.557 L 1177.81 288.097 C 1178.22 280.471 1178.07 273.815 1177.9 266.176 C 1178.14 262.552 1178.41 257.372 1176.99 254.124 z"/>
<path transform="translate(0,0)" fill="rgb(102,158,79)" d="M 1079.75 280.561 C 1085.16 281.024 1088.69 275.9 1093.72 275.956 C 1100.34 282.825 1099.9 292.839 1112.26 299.155 L 1112.52 300.622 L 1110.09 302.104 L 1111.88 302.563 C 1079.47 323.898 1064.83 330.1 1037.87 363.1 L 1037.15 362.601 C 1037.46 356.645 1036.97 349.358 1035.46 343.555 L 1036.05 342.184 C 1036.95 340.916 1040.99 330.028 1041.98 327.552 C 1049.41 308.889 1061.56 290.384 1079.75 280.561 z"/>
<path transform="translate(0,0)" fill="rgb(22,115,222)" d="M 1179.04 776.637 C 1193.52 772.236 1205.85 772.082 1220.17 777.39 C 1235.08 784.359 1246.01 797.05 1248 813.822 C 1250.33 823.863 1250.21 837.413 1246.63 847.131 C 1246.36 848.01 1246.06 848.88 1245.74 849.741 C 1241.41 861.594 1232.5 871.211 1221.01 876.426 C 1208.13 882.13 1190.99 882.061 1177.95 876.925 C 1165.92 872.236 1156.34 862.822 1151.43 850.876 C 1140.09 823.425 1149.55 788.251 1179.04 776.637 z"/>
<path transform="translate(0,0)" fill="rgb(18,101,196)" d="M 1179.04 776.637 C 1193.52 772.236 1205.85 772.082 1220.17 777.39 C 1213.71 779.701 1183.95 780.377 1179.04 776.637 z"/>
<path transform="translate(0,0)" fill="rgb(25,109,193)" d="M 1248 813.822 C 1250.33 823.863 1250.21 837.413 1246.63 847.131 C 1245.21 841.376 1246.63 819.53 1248 813.822 z"/>
<path transform="translate(0,0)" fill="rgb(248,250,251)" d="M 1225.64 837.573 C 1224.37 841.754 1223.2 845.185 1221.11 849.068 C 1215.19 861.389 1195.26 865.801 1184.43 857.806 C 1154.52 835.716 1172.98 775.25 1214.41 796.999 C 1222.65 801.323 1225.47 815.59 1226.8 824.473 C 1226.56 829.017 1226.44 833.066 1225.64 837.573 z"/>
<path transform="translate(0,0)" fill="rgb(18,101,196)" d="M 1226.8 824.473 C 1226.99 820.408 1226.79 818.468 1229.04 815.088 L 1230.78 814.473 C 1235.07 819.589 1234.66 831.722 1231.29 837.102 C 1228.85 837.851 1228.25 837.686 1225.64 837.573 C 1226.44 833.066 1226.56 829.017 1226.8 824.473 z"/>
<path transform="translate(0,0)" fill="rgb(57,5,54)" d="M 704.686 775.075 C 721.931 775.416 739.929 774.322 757.112 775.141 C 767.667 775.645 775.756 779.026 782.566 787.095 C 788.187 797.031 788.714 805.086 783.063 815.252 C 779.081 819.576 776.025 821.104 771.044 824.06 C 778.935 827.18 788.379 832.44 790.397 841.569 C 800.9 889.084 733.92 879.045 704.727 879.065 L 704.686 775.075 z"/>
<path transform="translate(0,0)" fill="rgb(42,3,41)" d="M 782.566 787.095 C 788.187 797.031 788.714 805.086 783.063 815.252 C 778.649 809.405 777.852 792.952 782.566 787.095 z"/>
<path transform="translate(0,0)" fill="rgb(248,250,251)" d="M 727.466 833.098 C 742.218 832.951 783.041 831.019 764.091 857.87 C 755.804 863.854 738.26 862.047 727.764 861.907 C 727.767 852.303 727.667 842.7 727.466 833.098 z"/>
<path transform="translate(0,0)" fill="rgb(248,250,251)" d="M 728.043 792.188 C 741.227 792.171 777.689 790.446 759.681 814.352 C 752.088 819.448 737.462 817.841 727.958 817.588 L 728.043 792.188 z"/>
<path transform="translate(0,0)" fill="rgb(57,5,54)" d="M 837.905 799.399 C 867.839 799.216 876.938 819.316 876.877 845.98 C 860.912 844.369 837.134 845.046 820.618 845.052 C 825.172 865.638 843.269 872.451 856.518 855.114 L 873.872 855.321 C 874.619 855.524 875.022 855.994 875.716 856.532 C 869.226 883.9 831.95 886.657 812.833 871.85 C 792.82 856.35 795.419 816.436 818.113 804.456 C 825.12 800.757 830.241 800.081 837.905 799.399 z"/>
<path transform="translate(0,0)" fill="rgb(248,250,251)" d="M 836.53 831.92 C 831.812 831.139 828.079 832.172 821.976 830.723 L 821.548 829.447 C 830.207 809.733 847.935 811.22 855.949 830.649 C 849.401 831.973 843.194 831.823 836.53 831.92 z"/>
<path transform="translate(0,0)" fill="rgb(57,5,54)" d="M 998.914 800.871 L 1022.71 800.835 C 1024.96 807.775 1027.05 814.762 1028.99 821.791 L 1029.83 826.103 C 1033.41 836.636 1036.8 847.541 1040.23 858.147 C 1044.09 844.356 1048.92 831.036 1052.19 817.074 L 1055.35 806.846 C 1055.88 804.733 1056 802.241 1057.77 801.62 C 1063.78 799.506 1073.39 801.063 1079.96 800.875 C 1075.46 814.672 1070.66 828.369 1065.56 841.958 L 1062.14 853.369 C 1057.53 865.48 1050.04 889.094 1043.89 898.192 L 1038.4 903.254 C 1029.83 910.426 1017.34 909.229 1006.98 908.759 L 1006.74 890.859 C 1010.82 891.101 1015.79 891.563 1019.75 890.478 C 1023.81 889.633 1028.94 882.995 1027.32 878.726 C 1017.68 853.16 1008.66 826.319 998.914 800.871 z"/>
<path transform="translate(0,0)" fill="rgb(57,5,54)" d="M 1055.35 806.846 C 1055.88 804.733 1056 802.241 1057.77 801.62 C 1063.78 799.506 1073.39 801.063 1079.96 800.875 C 1075.46 814.672 1070.66 828.369 1065.56 841.958 C 1053.58 831.465 1064.66 813.831 1055.35 806.846 z"/>
<path transform="translate(0,0)" fill="rgb(42,3,41)" d="M 1055.35 806.846 C 1064.66 813.831 1053.58 831.465 1065.56 841.958 L 1062.14 853.369 C 1056.44 843.1 1060.38 824.254 1052.19 817.074 L 1055.35 806.846 z"/>
<path transform="translate(0,0)" fill="rgb(42,3,41)" d="M 1029.83 826.103 C 1026.77 829.039 1023.71 845.223 1023.42 849.973 L 1023.06 849.398 C 1022.68 843.431 1023.09 825.056 1026.85 820.787 L 1028.99 821.791 L 1029.83 826.103 z"/>
<path transform="translate(0,0)" fill="rgb(42,3,41)" d="M 1038.4 903.254 C 1036.85 899.831 1035.97 899.376 1036.36 896.075 C 1039.52 895.39 1040.35 896.567 1043.89 898.192 L 1038.4 903.254 z"/>
<path transform="translate(0,0)" fill="rgb(42,3,41)" d="M 1033.07 871.555 C 1037.35 874.787 1036.09 883.437 1035.85 888.363 L 1034.3 886.862 C 1032.65 881.948 1033.03 876.756 1033.07 871.555 z"/>
<path transform="translate(0,0)" fill="rgb(22,115,222)" d="M 1297.4 815.491 C 1312.85 818.504 1328.85 819.86 1338.77 832.791 C 1343.41 839.646 1345.15 845.621 1343.6 854.011 C 1342.27 861.653 1337.9 868.43 1331.48 872.796 C 1330.52 873.445 1329.35 874.199 1328.32 874.699 C 1325.17 876.179 1322.06 877.735 1318.78 878.882 C 1304.66 881.545 1296.96 881.297 1282.9 878.155 C 1278.74 876.703 1276.91 875.623 1273.06 873.442 C 1262.28 867.543 1260.17 858.126 1258.3 847.047 C 1265.38 846.914 1273.03 847.112 1280.16 847.163 C 1285.21 861.731 1301.55 867.492 1312.71 860.376 C 1339.27 843.436 1300.75 836.133 1292.5 833.993 C 1285.02 833.006 1280.67 831.128 1274.11 827.502 C 1282.59 824.974 1302.16 828.968 1304.71 818.59 C 1300.1 818.937 1301.7 819.141 1297.4 815.491 z"/>
<path transform="translate(0,0)" fill="rgb(18,101,196)" d="M 1273.06 873.442 C 1279.91 873.923 1283.22 872.883 1289.79 872.321 C 1302.29 871.251 1316.07 871.726 1328.32 874.699 C 1325.17 876.179 1322.06 877.735 1318.78 878.882 C 1304.66 881.545 1296.96 881.297 1282.9 878.155 C 1278.74 876.703 1276.91 875.623 1273.06 873.442 z"/>
<path transform="translate(0,0)" fill="rgb(25,109,193)" d="M 1282.9 878.155 L 1283.71 878.132 C 1294.07 877.787 1306.75 871.844 1318.78 878.882 C 1304.66 881.545 1296.96 881.297 1282.9 878.155 z"/>
<path transform="translate(0,0)" fill="rgb(18,101,196)" d="M 1297.4 815.491 C 1312.85 818.504 1328.85 819.86 1338.77 832.791 L 1337.89 832.428 C 1332.01 829.959 1331.13 827.199 1327.53 825.866 C 1314.28 820.958 1300.57 829.89 1288.61 830.599 L 1289.04 831.939 L 1291.97 832.267 L 1292.5 833.993 C 1285.02 833.006 1280.67 831.128 1274.11 827.502 C 1282.59 824.974 1302.16 828.968 1304.71 818.59 C 1300.1 818.937 1301.7 819.141 1297.4 815.491 z"/>
<path transform="translate(0,0)" fill="rgb(22,115,222)" d="M 1266.51 788.236 C 1282.71 767.869 1325.02 767.431 1337.51 790.49 C 1340.47 795.838 1341.59 799.828 1343.04 805.72 C 1336.16 805.801 1328.76 806.08 1321.95 805.454 C 1315.5 803.222 1321.59 786.708 1289.06 793.342 C 1283.35 799.544 1282.82 802.029 1284.96 810.095 C 1288.93 811.999 1293.22 814.213 1297.4 815.491 C 1301.7 819.141 1300.1 818.937 1304.71 818.59 C 1302.16 828.968 1282.59 824.974 1274.11 827.502 L 1273.05 826.678 C 1258.84 818.534 1258.86 801.075 1266.51 788.236 z"/>
<path transform="translate(0,0)" fill="rgb(18,101,196)" d="M 1266.51 788.236 C 1272.3 800.727 1261.7 813.669 1273.05 826.678 C 1258.84 818.534 1258.86 801.075 1266.51 788.236 z"/>
<path transform="translate(0,0)" fill="rgb(25,109,193)" d="M 1321.95 805.454 C 1326.38 802.179 1332.71 801.189 1336.23 795.96 C 1336.43 793.784 1336.52 792.451 1337.51 790.49 C 1340.47 795.838 1341.59 799.828 1343.04 805.72 C 1336.16 805.801 1328.76 806.08 1321.95 805.454 z"/>
<path transform="translate(0,0)" fill="rgb(18,101,196)" d="M 1284.96 810.095 L 1284.21 810.438 C 1279.18 805.339 1280.04 795.18 1289.06 793.342 C 1283.35 799.544 1282.82 802.029 1284.96 810.095 z"/>
<path transform="translate(0,0)" fill="rgb(139,184,84)" d="M 1022.13 271.356 C 1027.89 252.55 1038.31 229.391 1052.03 215.162 C 1063.3 203.477 1078.6 215.834 1077 231.05 C 1068.07 245.768 1061.67 249.822 1052.28 268.174 C 1047.61 278.582 1044.04 286.97 1041.48 298.163 C 1039.32 289.943 1041.45 281.746 1034.63 276.96 C 1030.57 286.855 1028.5 293.622 1025.82 304.02 C 1022.09 298.803 1027.21 283.149 1022.13 271.356 z"/>
<path transform="translate(0,0)" fill="rgb(49,110,63)" d="M 1047.38 254.041 C 1050.58 247.313 1063.87 233.709 1070.63 231.109 C 1074.48 229.627 1073.47 229.826 1077 231.05 C 1068.07 245.768 1061.67 249.822 1052.28 268.174 C 1051.17 262.583 1051.09 257.549 1047.38 254.041 z"/>
<path transform="translate(0,0)" fill="rgb(66,121,64)" d="M 1047.38 254.041 C 1051.09 257.549 1051.17 262.583 1052.28 268.174 C 1047.61 278.582 1044.04 286.97 1041.48 298.163 C 1039.32 289.943 1041.45 281.746 1034.63 276.96 C 1035.65 272.012 1044.24 258.531 1047.38 254.041 z"/>
<path transform="translate(0,0)" fill="rgb(57,5,54)" d="M 967.744 814.315 C 976.041 800.55 978.236 799.331 994.327 799.988 C 994.4 806.526 994.35 813.517 994.58 820.008 C 980.013 818.478 969.165 820.419 967.899 838.404 C 966.967 851.645 968.281 865.657 968.079 879.053 C 963.15 879.044 950.125 879.312 945.863 878.755 C 946.036 854.273 944.948 825.905 946.068 801.935 C 948.375 800.543 952.057 800.897 954.953 800.858 L 967.852 800.758 L 967.744 814.315 z"/>
<path transform="translate(0,0)" fill="rgb(57,5,54)" d="M 925.369 800.288 L 936.216 800.187 C 936.133 806.834 936.487 813.495 936.762 820.139 C 908.598 816.971 909.447 832.008 909.906 855.477 C 910.054 863.079 909.996 871.347 910.017 879.007 C 903.012 878.866 895.476 879.03 888.425 879.054 C 887.732 875.282 888.079 855.622 888.111 850.928 C 888.276 834.246 888.258 817.563 888.059 800.881 L 909.886 800.953 L 909.394 813.264 C 914.925 804.978 915.846 802.733 925.369 800.288 z"/>
<path transform="translate(0,0)" fill="rgb(57,5,54)" d="M 1087.07 827.942 L 1134.78 827.839 L 1134.91 846.421 C 1119.21 845.86 1102.69 846.264 1086.98 846.556 C 1086.9 840.352 1086.93 834.146 1087.07 827.942 z"/>
<path transform="translate(0,0)" fill="rgb(248,250,251)" d="M 1012.7 267.499 C 1013.28 267.936 1014.16 268.993 1014.69 269.573 C 1015.64 275.136 1014.92 280.917 1014.5 286.569 C 1012.38 280.448 1011.76 273.908 1012.7 267.499 z"/>
</svg>