<svg width="1024" height="1024" xmlns="http://www.w3.org/2000/svg" version="1.1" preserveAspectRatio="none">
 <defs>
  <linearGradient id="svg_113" x1="0.76727" y1="0.9071" x2="0.29816" y2="0.03779">
   <stop class="stop0" offset="0" stop-color="rgb(60,50,151)"/>
   <stop class="stop1" offset="1" stop-color="rgb(94,128,213)"/>
  </linearGradient>
 </defs>
 <g>
  <title>Layer 1</title>
  <g>

   <g>
    <title>Layer 1</title>
    <path fill="url(#svg_113)" d="m436.71157,365.9824c21.472,1.111 30.525,9.585 52.809,1.312c14.03,-5.208 39.08,-4.113 52.82,1.911c15.68,4.444 23.4,-1.674 39.27,-3.041c9.31,-0.802 13.85,-0.292 22.71,1.318c9.99,3.243 19.01,5.897 28.06,11.362l1.64,1.103c10.22,5.124 24.31,17.36 31.39,26.355l0.88,1.028c9.89,11.584 15.86,20.853 23.21,34.338l1.21,2.975c3.79,6.734 7.8,16.412 10.03,23.823c1.97,5.344 5.27,17.209 6.05,22.862c10.33,28.236 3.69,73.549 -3.91,102.027l-2.66,7.32c-1.69,4.856 -8.47,20.389 -8.95,22.713l-1.83,1.848c-3.23,7.486 -7.46,12.461 -10.16,18.157l-2.65,3.011c-14.6,24.054 -47.55,52.174 -72.74,64.783c-3.65,1.755 -9.29,4.687 -12.92,6.044c-4.82,2.826 -9.15,4.153 -14.37,5.981l-4.9,1.764c-7.9,2.147 -17.35,5.014 -25.33,5.886c-1.8,0.761 -8.52,1.639 -10.7,1.936c-25.97,3.527 -55.551,0.506 -80.475,-7.14c-4.819,-0.485 -13.45,-4.293 -17.869,-6.451c-0.221,-0.055 -0.442,-0.109 -0.662,-0.164c-77.929,-31.585 -131.542,-112.805 -124.902,-197.401c1.377,-17.539 4.094,-29.653 7.927,-44.874l3.271,-8.986c6.976,-28.202 36.564,-69.71 61.624,-84.756c5.491,-3.885 8.248,-4.981 14.284,-7.572c4.789,-3.011 14.845,-5.997 20.352,-7.698c5.255,-1.601 11.996,-1.729 17.491,-1.774z" id="svg_112"/>
    <path fill="rgb(39,50,139)" d="m436.71157,365.9824c21.472,1.111 30.525,9.585 52.809,1.312c14.03,-5.208 39.08,-4.113 52.82,1.911c15.68,4.444 23.4,-1.674 39.27,-3.041c9.31,-0.802 13.85,-0.292 22.71,1.318c9.99,3.243 19.01,5.897 28.06,11.362l1.64,1.103c10.22,5.124 24.31,17.36 31.39,26.355l0.88,1.028c9.89,11.584 15.86,20.853 23.21,34.338l1.21,2.975c3.79,6.734 7.8,16.412 10.03,23.823l-1.99,-0.898c-1.39,-3.303 -5.86,-13.68 -6.46,-16.385l-2,-1.076c-0.27,3.898 0.19,10.024 -1.3,12.913l-1.48,0.202c-1.8,-2.679 -2.11,-5.239 -2.76,-8.368c-5.61,2.029 -16.9,26.75 -22.22,33.622c-1.28,12.739 -0.74,36.469 -4.11,47.235c-0.27,-0.471 2.04,-30.964 1.59,-36.381c-2.97,-35.224 -15.15,-98.648 -54.34,-110.631c-15.03,-4.594 -32.35,-1.89 -47.41,0.588c-15.06,2.476 -24.56,-4.964 -38.77,-6.772c-15.68,-1.995 -30.12,4.027 -45.263,6.359c-5.988,0.847 -15.716,-0.797 -20.349,-1.922c-59.776,-14.515 -103.52,47.071 -117.058,98.728c-12.039,45.649 -5.601,94.204 17.918,135.138c26.649,45.391 91.978,64.589 141.332,60.236c3.92,-0.346 14.74,-1.854 17.61,-1.193l-0.04,0.742l-28.475,3.511l-0.729,1.243c0.821,2.083 1.617,4.176 2.385,6.279c1.769,4.871 -5.084,17.614 2.069,21.008c8.53,4.047 43.85,-1.46 49.95,1.855c-5.28,0.831 -9.48,-0.006 -14.11,2.278c-2.18,4.772 6.48,10.771 10.21,13.197c2.9,1.885 8.7,-2.538 11.43,0.888c-1.8,0.761 -8.52,1.639 -10.7,1.936c-25.97,3.527 -55.551,0.506 -80.475,-7.14c-4.819,-0.485 -13.45,-4.293 -17.869,-6.451c-0.221,-0.055 -0.442,-0.109 -0.662,-0.164c-77.929,-31.585 -131.542,-112.805 -124.902,-197.401c1.377,-17.539 4.094,-29.653 7.927,-44.874l3.271,-8.986c6.976,-28.202 36.564,-69.71 61.624,-84.756c5.491,-3.885 8.248,-4.981 14.284,-7.572c4.789,-3.011 14.845,-5.997 20.352,-7.698c5.255,-1.601 11.996,-1.729 17.491,-1.774z" id="svg_111"/>
    <path fill="rgb(29,31,119)" d="m437.32657,719.2074c0.298,-0.052 37.237,2.008 37.169,1.966c-5.832,0.82 -14.407,1.504 -19.3,4.485c-4.819,-0.485 -13.45,-4.293 -17.869,-6.451z" id="svg_110"/>
    <path fill="rgb(29,31,119)" d="m322.96057,467.7824c1.662,2.98 2.778,31.223 1.887,34.134c-2.941,-2.904 -0.289,-18.139 -5.158,-25.148l3.271,-8.986z" id="svg_109"/>
    <path fill="rgb(29,31,119)" d="m632.38057,378.8444l1.64,1.103c-3.24,3.31 -14.54,4.235 -18.15,1.593l0.26,-1.422c4.81,-1.712 10.4,0.396 16.25,-1.274z" id="svg_108"/>
    <path fill="rgb(29,31,119)" d="m687.94057,465.6284c-1.47,-8.75 -4.57,-16.92 1.56,-23.96l1.21,2.975c-2.79,3.582 -2.56,15.726 -2.77,20.985z" id="svg_107"/>
    <path fill="rgb(29,31,119)" d="m665.41057,406.3024l0.88,1.028c-0.2,3.256 -0.18,4.893 -1.23,8.065l-0.82,0.342c-1.32,-3.291 -1.2,-6.669 1.17,-9.435z" id="svg_106"/>
    <path fill="rgb(29,31,119)" d="m322.33657,568.8074c0.79,0.409 1.893,1.294 2.648,1.851c2.063,5.681 1.232,16.971 1.093,23.511c-2.67,-3.259 -3.875,-20.552 -3.741,-25.362z" id="svg_105"/>
    <path fill="rgb(29,31,119)" d="m425.11057,709.1854c3.42,-1.341 13.725,0.507 17.954,1.036c-4.361,0.816 -12.899,1.167 -17.244,0.615l-0.71,-1.651z" id="svg_104"/>
    <path fill="rgb(29,31,119)" d="m357.18457,650.1974c2.98,2.385 2.341,2.556 2.07,6.086c-1.092,0.273 -0.499,0.255 -1.831,-0.533l-0.239,-5.553z" id="svg_103"/>
    <path fill="rgb(29,31,119)" d="m706.79057,491.3284c-3.06,-3.091 -2.98,-5.799 -4.2,-10.426l-0.52,-0.149c0.01,5.224 0.7,18.373 -2.05,22.199l-1.68,-0.398c-2.13,-5.382 -2.31,-29.757 0.41,-34.986l1.99,0.898c1.97,5.344 5.27,17.209 6.05,22.862z" id="svg_102"/>
    <path fill="rgb(29,31,119)" d="m590.97057,717.2314c0.11,-2.508 2.02,-2.855 1.71,-5.459c-2.47,-0.964 -4.27,-1.624 -6.81,-2.354l0.8,-1.039c7.42,-0.226 11.91,-1.568 17.22,2.808c-3.65,1.755 -9.29,4.687 -12.92,6.044z" id="svg_101"/>
    <path fill="rgb(39,50,139)" d="m700.22057,600.6754c-3.12,-4.135 -3.26,-24.005 -1.32,-28.723c1.51,1.505 -0.32,14.509 3.98,21.403l-2.66,7.32z" id="svg_100"/>
    <path fill="rgb(29,31,119)" d="m571.70057,724.9764c-6.29,-4.53 -20.42,-1.617 -25.33,-3.715c3.7,-2.29 25.86,-1.191 30.23,1.951l-4.9,1.764z" id="svg_99"/>
    <path fill="rgb(39,50,139)" d="m689.44057,625.2364c-4.63,-6.12 -2.86,-11.337 -2.3,-19.417c-0.04,-0.082 3.13,14.694 4.13,17.569l-1.83,1.848z" id="svg_98"/>
    <path fill="rgb(39,50,139)" d="m676.63057,646.4044c-1.38,-2.275 -2.17,-7.186 -1.34,-9.784c2.54,1.404 2.63,3.479 3.99,6.773l-2.65,3.011z" id="svg_97"/>
    <path fill="rgb(146,164,236)" d="m417.84457,406.8194c18.687,-1.655 18.172,13.962 11.053,26.347c-8.851,15.398 -21.988,27.015 -38.975,32.295c-19.543,1.757 -18.584,-15.208 -11.337,-27.837c9.383,-16.352 21.601,-25.442 39.259,-30.805z" id="svg_96"/>
    <path fill="rgb(49,110,63)" d="m351.55757,250.3614c11.48,4.094 18.099,5.849 29.98,8.118c16.141,3.082 45.836,4.656 59.931,12.68c30.874,10.397 47.352,38.488 56.642,67.674c3.28,-27.034 3.39,-42.009 11.6,-68.813c5.08,11.793 -0.04,27.447 3.69,32.664c2.68,-10.398 4.75,-17.165 8.81,-27.06c6.82,4.786 4.69,12.983 6.85,21.203c-3.9,16.601 -5.61,26.814 -5.43,44.021c0.9,-1.268 4.94,-12.156 5.93,-14.632c7.43,-18.663 19.58,-37.168 37.77,-46.991c20.84,-18.029 67.75,-16.11 97.24,-26.437c3.88,-0.822 4.08,-1.607 6.89,-0.069c2.47,9.19 -2.54,36.87 -5.79,46.502c-2.62,7.198 -5.97,16.349 -10.1,22.87c-14.43,25.199 -26.98,31.715 -51.25,45.391c-8.86,-1.61 -13.4,-2.12 -22.71,-1.318c-15.87,1.367 -23.59,7.485 -39.27,3.041c-13.74,-6.024 -38.79,-7.119 -52.82,-1.911c-22.284,8.273 -31.337,-0.201 -52.809,-1.312c-5.495,0.045 -12.236,0.173 -17.491,1.774c-23.783,-12.42 -44.436,-27.682 -55.226,-53.233c-11.082,-17.979 -12.711,-43.71 -12.437,-64.162z" id="svg_95"/>
    <path fill="rgb(102,158,79)" d="m351.55757,250.3614c11.48,4.094 18.099,5.849 29.98,8.118c16.141,3.082 45.836,4.656 59.931,12.68c30.874,10.397 47.352,38.488 56.642,67.674c3.28,-27.034 3.39,-42.009 11.6,-68.813c5.08,11.793 -0.04,27.447 3.69,32.664c-2.87,18.632 -8.9,37.197 -7.31,56.018c0.16,1.925 -2.24,3.652 -3.48,4.722c-2,0.046 -3.45,0.224 -4.95,-1.684c-20.986,-26.877 -50.608,-48.506 -80.988,-63.669c-5.053,-2.522 -19.659,-9.91 -24.973,-9.023l-0.906,1.651c2.522,5.495 22.779,16.329 29.272,20.801c19.789,13.632 36.777,26.252 51.122,45.851c2.163,2.955 7.239,8.024 7.306,11.037c-10.383,5.084 -26.507,-6.926 -41.782,-2.406c-5.495,0.045 -12.236,0.173 -17.491,1.774c-23.783,-12.42 -44.436,-27.682 -55.226,-53.233c-11.082,-17.979 -12.711,-43.71 -12.437,-64.162z" id="svg_94"/>
    <path fill="rgb(139,184,84)" d="m351.55757,250.3614c11.48,4.094 18.099,5.849 29.98,8.118c16.141,3.082 45.836,4.656 59.931,12.68l-1.467,0.893c-10.117,-3.063 -16.59,-5.396 -27.262,-6.601c-8.745,10.153 -41.861,20.88 -55.236,27.335c1.612,6.156 6.728,17.534 6.491,21.737c-11.082,-17.979 -12.711,-43.71 -12.437,-64.162z" id="svg_93"/>
    <path fill="rgb(102,158,79)" d="m606.32057,309.9454l1.42,0.803c3.17,-1.928 22.19,-14.274 23.7,-14.472c5.01,2.493 11.25,5.678 16.39,7.784c2.69,1.101 8.6,0.345 11.76,2.663c0.38,3.549 -1.1,7.598 -3.7,10.036c-3.13,-3.73 0.48,-6.64 -2.9,-7.6c-3.55,2.956 -2.61,5.65 -2.14,10.031c0.96,-1.722 1.32,-5.039 1.67,-7.112c1.2,1.267 2.53,7.874 3.05,10.013c-14.43,25.199 -26.98,31.715 -51.25,45.391c-8.86,-1.61 -13.4,-2.12 -22.71,-1.318c-15.87,1.367 -23.59,7.485 -39.27,3.041c8.84,-17.81 46.1,-50.023 63.98,-59.26z" id="svg_92"/>
    <path fill="rgb(139,184,84)" d="m664.57057,252.7884c3.88,-0.822 4.08,-1.607 6.89,-0.069c2.47,9.19 -2.54,36.87 -5.79,46.502c-2.62,7.198 -5.97,16.349 -10.1,22.87c-0.52,-2.139 -1.85,-8.746 -3.05,-10.013c-0.35,2.073 -0.71,5.39 -1.67,7.112c-0.47,-4.381 -1.41,-7.075 2.14,-10.031c3.38,0.96 -0.23,3.87 2.9,7.6c2.6,-2.438 4.08,-6.487 3.7,-10.036c-3.16,-2.318 -9.07,-1.562 -11.76,-2.663c-5.14,-2.106 -11.38,-5.291 -16.39,-7.784c-1.51,0.198 -20.53,12.544 -23.7,14.472l-1.42,-0.803c4.85,-3.092 23.97,-14.248 24.91,-19.452l-1.5,-0.817c-10.44,1.222 -20.72,6.948 -30.27,11.551l-1.79,-0.459l2.43,-1.482l-0.26,-1.467c-12.36,-6.316 -11.92,-16.33 -18.54,-23.199c-5.03,-0.056 -8.56,5.068 -13.97,4.605c20.84,-18.029 67.75,-16.11 97.24,-26.437z" id="svg_91"/>
    <path fill="rgb(162,198,107)" d="m664.57057,252.7884c3.88,-0.822 4.08,-1.607 6.89,-0.069c2.47,9.19 -2.54,36.87 -5.79,46.502l-0.28,-12.46c0.41,-7.626 0.26,-14.282 0.09,-21.921c0.24,-3.624 0.51,-8.804 -0.91,-12.052z" id="svg_90"/>
    <path fill="rgb(102,158,79)" d="m567.33057,279.2254c5.41,0.463 8.94,-4.661 13.97,-4.605c6.62,6.869 6.18,16.883 18.54,23.199l0.26,1.467l-2.43,1.482l1.79,0.459c-32.41,21.335 -47.05,27.537 -74.01,60.537l-0.72,-0.499c0.31,-5.956 -0.18,-13.243 -1.69,-19.046l0.59,-1.371c0.9,-1.268 4.94,-12.156 5.93,-14.632c7.43,-18.663 19.58,-37.168 37.77,-46.991z" id="svg_89"/>
    <path fill="rgb(22,115,222)" d="m666.62057,775.3014c14.48,-4.401 26.81,-4.555 41.13,0.753c14.91,6.969 25.84,19.66 27.83,36.432c2.33,10.041 2.21,23.591 -1.37,33.309c-0.27,0.879 -0.57,1.749 -0.89,2.61c-4.33,11.853 -13.24,21.47 -24.73,26.685c-12.88,5.704 -30.02,5.635 -43.06,0.499c-12.03,-4.689 -21.61,-14.103 -26.52,-26.049c-11.34,-27.451 -1.88,-62.625 27.61,-74.239z" id="svg_88"/>
    <path fill="rgb(18,101,196)" d="m666.62057,775.3014c14.48,-4.401 26.81,-4.555 41.13,0.753c-6.46,2.311 -36.22,2.987 -41.13,-0.753z" id="svg_87"/>
    <path fill="rgb(25,109,193)" d="m735.58057,812.4864c2.33,10.041 2.21,23.591 -1.37,33.309c-1.42,-5.755 0,-27.601 1.37,-33.309z" id="svg_86"/>
    <path fill="rgb(248,250,251)" d="m713.22057,836.2374c-1.27,4.181 -2.44,7.612 -4.53,11.495c-5.92,12.321 -25.85,16.733 -36.68,8.738c-29.91,-22.09 -11.45,-82.556 29.98,-60.807c8.24,4.324 11.06,18.591 12.39,27.474c-0.24,4.544 -0.36,8.593 -1.16,13.1z" id="svg_85"/>
    <path fill="rgb(18,101,196)" d="m714.38057,823.1374c0.19,-4.065 -0.01,-6.005 2.24,-9.385l1.74,-0.615c4.29,5.116 3.88,17.249 0.51,22.629c-2.44,0.749 -3.04,0.584 -5.65,0.471c0.8,-4.507 0.92,-8.556 1.16,-13.1z" id="svg_84"/>
    <path fill="rgb(57,5,54)" d="m192.26657,773.7394c17.245,0.341 35.243,-0.753 52.426,0.066c10.555,0.504 18.644,3.885 25.454,11.954c5.621,9.936 6.148,17.991 0.497,28.157c-3.982,4.324 -7.038,5.852 -12.019,8.808c7.891,3.12 17.335,8.38 19.353,17.509c10.503,47.515 -56.477,37.476 -85.67,37.496l-0.041,-103.99z" id="svg_83"/>
    <path fill="rgb(42,3,41)" d="m270.14657,785.7594c5.621,9.936 6.148,17.991 0.497,28.157c-4.414,-5.847 -5.211,-22.3 -0.497,-28.157z" id="svg_82"/>
    <path fill="rgb(248,250,251)" d="m215.04657,831.7624c14.752,-0.147 55.575,-2.079 36.625,24.772c-8.287,5.984 -25.831,4.177 -36.327,4.037c0.003,-9.604 -0.097,-19.207 -0.298,-28.809z" id="svg_81"/>
    <path fill="rgb(248,250,251)" d="m215.62357,790.8524c13.184,-0.017 49.646,-1.742 31.638,22.164c-7.593,5.096 -22.219,3.489 -31.723,3.236l0.085,-25.4z" id="svg_80"/>
    <path fill="rgb(57,5,54)" d="m325.48557,798.0634c29.934,-0.183 39.033,19.917 38.972,46.581c-15.965,-1.611 -39.743,-0.934 -56.259,-0.928c4.554,20.586 22.651,27.399 35.9,10.062l17.354,0.207c0.747,0.203 1.15,0.673 1.844,1.211c-6.49,27.368 -43.766,30.125 -62.883,15.318c-20.013,-15.5 -17.414,-55.414 5.28,-67.394c7.007,-3.699 12.128,-4.375 19.792,-5.057z" id="svg_79"/>
    <path fill="rgb(248,250,251)" d="m324.11057,830.5844c-4.718,-0.781 -8.451,0.252 -14.554,-1.197l-0.428,-1.276c8.659,-19.714 26.387,-18.227 34.401,1.202c-6.548,1.324 -12.755,1.174 -19.419,1.271z" id="svg_78"/>
    <path fill="rgb(57,5,54)" d="m486.49457,799.5354l23.796,-0.036c2.25,6.94 4.34,13.927 6.28,20.956l0.84,4.312c3.58,10.533 6.97,21.438 10.4,32.044c3.86,-13.791 8.69,-27.111 11.96,-41.073l3.16,-10.228c0.53,-2.113 0.65,-4.605 2.42,-5.226c6.01,-2.114 15.62,-0.557 22.19,-0.745c-4.5,13.797 -9.3,27.494 -14.4,41.083l-3.42,11.411c-4.61,12.111 -12.1,35.725 -18.25,44.823l-5.49,5.062c-8.57,7.172 -21.06,5.975 -31.42,5.505l-0.24,-17.9c4.08,0.242 9.05,0.704 13.01,-0.381c4.06,-0.845 9.19,-7.483 7.57,-11.752c-9.64,-25.566 -18.66,-52.407 -28.406,-77.855z" id="svg_77"/>
    <path fill="rgb(57,5,54)" d="m542.93057,805.5104c0.53,-2.113 0.65,-4.605 2.42,-5.226c6.01,-2.114 15.62,-0.557 22.19,-0.745c-4.5,13.797 -9.3,27.494 -14.4,41.083c-11.98,-10.493 -0.9,-28.127 -10.21,-35.112z" id="svg_76"/>
    <path fill="rgb(42,3,41)" d="m542.93057,805.5104c9.31,6.985 -1.77,24.619 10.21,35.112l-3.42,11.411c-5.7,-10.269 -1.76,-29.115 -9.95,-36.295l3.16,-10.228z" id="svg_75"/>
    <path fill="rgb(42,3,41)" d="m517.41057,824.7674c-3.06,2.936 -6.12,19.12 -6.41,23.87l-0.36,-0.575c-0.38,-5.967 0.03,-24.342 3.79,-28.611l2.14,1.004l0.84,4.312z" id="svg_74"/>
    <path fill="rgb(42,3,41)" d="m525.98057,901.9184c-1.55,-3.423 -2.43,-3.878 -2.04,-7.179c3.16,-0.685 3.99,0.492 7.53,2.117l-5.49,5.062z" id="svg_73"/>
    <path fill="rgb(42,3,41)" d="m520.65057,870.2194c4.28,3.232 3.02,11.882 2.78,16.808l-1.55,-1.501c-1.65,-4.914 -1.27,-10.106 -1.23,-15.307z" id="svg_72"/>
    <path fill="rgb(22,115,222)" d="m784.98057,814.1554c15.45,3.013 31.45,4.369 41.37,17.3c4.64,6.855 6.38,12.83 4.83,21.22c-1.33,7.642 -5.7,14.419 -12.12,18.785c-0.96,0.649 -2.13,1.403 -3.16,1.903c-3.15,1.48 -6.26,3.036 -9.54,4.183c-14.12,2.663 -21.82,2.415 -35.88,-0.727c-4.16,-1.452 -5.99,-2.532 -9.84,-4.713c-10.78,-5.899 -12.89,-15.316 -14.76,-26.395c7.08,-0.133 14.73,0.065 21.86,0.116c5.05,14.568 21.39,20.329 32.55,13.213c26.56,-16.94 -11.96,-24.243 -20.21,-26.383c-7.48,-0.987 -11.83,-2.865 -18.39,-6.491c8.48,-2.528 28.05,1.466 30.6,-8.912c-4.61,0.347 -3.01,0.551 -7.31,-3.099z" id="svg_71"/>
    <path fill="rgb(18,101,196)" d="m760.64057,872.1064c6.85,0.481 10.16,-0.559 16.73,-1.121c12.5,-1.07 26.28,-0.595 38.53,2.378c-3.15,1.48 -6.26,3.036 -9.54,4.183c-14.12,2.663 -21.82,2.415 -35.88,-0.727c-4.16,-1.452 -5.99,-2.532 -9.84,-4.713z" id="svg_70"/>
    <path fill="rgb(25,109,193)" d="m770.48057,876.8194l0.81,-0.023c10.36,-0.345 23.04,-6.288 35.07,0.75c-14.12,2.663 -21.82,2.415 -35.88,-0.727z" id="svg_69"/>
    <path fill="rgb(18,101,196)" d="m784.98057,814.1554c15.45,3.013 31.45,4.369 41.37,17.3l-0.88,-0.363c-5.88,-2.469 -6.76,-5.229 -10.36,-6.562c-13.25,-4.908 -26.96,4.024 -38.92,4.733l0.43,1.34l2.93,0.328l0.53,1.726c-7.48,-0.987 -11.83,-2.865 -18.39,-6.491c8.48,-2.528 28.05,1.466 30.6,-8.912c-4.61,0.347 -3.01,0.551 -7.31,-3.099z" id="svg_68"/>
    <path fill="rgb(22,115,222)" d="m754.09057,786.9004c16.2,-20.367 58.51,-20.805 71,2.254c2.96,5.348 4.08,9.338 5.53,15.23c-6.88,0.081 -14.28,0.36 -21.09,-0.266c-6.45,-2.232 -0.36,-18.746 -32.89,-12.112c-5.71,6.202 -6.24,8.687 -4.1,16.753c3.97,1.904 8.26,4.118 12.44,5.396c4.3,3.65 2.7,3.446 7.31,3.099c-2.55,10.378 -22.12,6.384 -30.6,8.912l-1.06,-0.824c-14.21,-8.144 -14.19,-25.603 -6.54,-38.442z" id="svg_67"/>
    <path fill="rgb(18,101,196)" d="m754.09057,786.9004c5.79,12.491 -4.81,25.433 6.54,38.442c-14.21,-8.144 -14.19,-25.603 -6.54,-38.442z" id="svg_66"/>
    <path fill="rgb(25,109,193)" d="m809.53057,804.1184c4.43,-3.275 10.76,-4.265 14.28,-9.494c0.2,-2.176 0.29,-3.509 1.28,-5.47c2.96,5.348 4.08,9.338 5.53,15.23c-6.88,0.081 -14.28,0.36 -21.09,-0.266z" id="svg_65"/>
    <path fill="rgb(18,101,196)" d="m772.54057,808.7594l-0.75,0.343c-5.03,-5.099 -4.17,-15.258 4.85,-17.096c-5.71,6.202 -6.24,8.687 -4.1,16.753z" id="svg_64"/>
    <path fill="rgb(139,184,84)" d="m509.71057,270.0204c5.76,-18.806 16.18,-41.965 29.9,-56.194c11.27,-11.685 26.57,0.672 24.97,15.888c-8.93,14.718 -15.33,18.772 -24.72,37.124c-4.67,10.408 -8.24,18.796 -10.8,29.989c-2.16,-8.22 -0.03,-16.417 -6.85,-21.203c-4.06,9.895 -6.13,16.662 -8.81,27.06c-3.73,-5.217 1.39,-20.871 -3.69,-32.664z" id="svg_63"/>
    <path fill="rgb(49,110,63)" d="m534.96057,252.7054c3.2,-6.728 16.49,-20.332 23.25,-22.932c3.85,-1.482 2.84,-1.283 6.37,-0.059c-8.93,14.718 -15.33,18.772 -24.72,37.124c-1.11,-5.591 -1.19,-10.625 -4.9,-14.133z" id="svg_62"/>
    <path fill="rgb(66,121,64)" d="m534.96057,252.7054c3.71,3.508 3.79,8.542 4.9,14.133c-4.67,10.408 -8.24,18.796 -10.8,29.989c-2.16,-8.22 -0.03,-16.417 -6.85,-21.203c1.02,-4.948 9.61,-18.429 12.75,-22.919z" id="svg_61"/>
    <path fill="rgb(57,5,54)" d="m455.32457,812.9794c8.297,-13.765 10.492,-14.984 26.583,-14.327c0.073,6.538 0.023,13.529 0.253,20.02c-14.567,-1.53 -25.415,0.411 -26.681,18.396c-0.932,13.241 0.382,27.253 0.18,40.649c-4.929,-0.009 -17.954,0.259 -22.216,-0.298c0.173,-24.482 -0.915,-52.85 0.205,-76.82c2.307,-1.392 5.989,-1.038 8.885,-1.077l12.899,-0.1l-0.108,13.557z" id="svg_60"/>
    <path fill="rgb(57,5,54)" d="m412.94957,798.9524l10.847,-0.101c-0.083,6.647 0.271,13.308 0.546,19.952c-28.164,-3.168 -27.315,11.869 -26.856,35.338c0.148,7.602 0.09,15.87 0.111,23.53c-7.005,-0.141 -14.541,0.023 -21.592,0.047c-0.693,-3.772 -0.346,-23.432 -0.314,-28.126c0.165,-16.682 0.147,-33.365 -0.052,-50.047l21.827,0.072l-0.492,12.311c5.531,-8.286 6.452,-10.531 15.975,-12.976z" id="svg_3"/>
    <path fill="rgb(57,5,54)" d="m574.65057,826.6064l47.71,-0.103l0.13,18.582c-15.7,-0.561 -32.22,-0.157 -47.93,0.135c-0.08,-6.204 -0.05,-12.41 0.09,-18.614z" id="svg_2"/>
    <path fill="rgb(248,250,251)" d="m500.28057,266.1634c0.58,0.437 1.46,1.494 1.99,2.074c0.95,5.563 0.23,11.344 -0.19,16.996c-2.12,-6.121 -2.74,-12.661 -1.8,-19.07z" id="svg_1"/>
   </g>
  </g>
 </g>
</svg>